<?xml version="1.0" encoding="utf-8"?>
<!-- Generator: Adobe Illustrator 16.0.0, SVG Export Plug-In . SVG Version: 6.00 Build 0)  -->
<!DOCTYPE svg PUBLIC "-//W3C//DTD SVG 1.1//EN" "http://www.w3.org/Graphics/SVG/1.1/DTD/svg11.dtd">
<svg version="1.1" id="Layer_1" xmlns="http://www.w3.org/2000/svg" xmlns:xlink="http://www.w3.org/1999/xlink" x="0px" y="0px"
	 width="100px" height="100px" viewBox="0 0 100 100" enable-background="new 0 0 100 100" xml:space="preserve">
<g>
	<path fill="#FFFFFF" d="M36.184,90.988c0.023,0.025,0.06,0.068,0.118,0.113c0.178,0.146,0.561,0.313,1.037,0.309h37.669
		c0.635,0.016,1.053-0.299,1.152-0.416L72.463,63.23H39.884L36.184,90.988z"/>
	<path fill="#FFFFFF" d="M77.652,36.349c-0.07-1.841-1.053-3.417-2.314-4.407c-1.324-1.045-2.992-1.605-4.775-1.608H41.783
		c-1.784,0.002-3.449,0.563-4.774,1.608c-1.262,0.99-2.25,2.566-2.32,4.407l-7.628,57.24v0.185c-0.003,1.93,1.011,3.593,2.32,4.617
		c1.328,1.047,2.991,1.603,4.776,1.609h44.032c1.785-0.008,3.453-0.563,4.774-1.609c1.312-1.024,2.326-2.688,2.32-4.617v-0.187
		L77.652,36.349z M78.189,94.275H34.156c-0.558,0.002-1.008-0.194-1.215-0.367c-0.065-0.051-0.107-0.1-0.134-0.133l7.605-57.028
		v-0.165c0.05-0.103,0.56-0.545,1.37-0.524h28.778c0.556-0.002,1.006,0.191,1.213,0.364c0.1,0.079,0.145,0.144,0.16,0.168v0.157
		l7.604,57.036C79.418,93.922,78.932,94.291,78.189,94.275z"/>
	<path fill="#FFFFFF" d="M73.672,25.357H38.674c-1.055,0-1.912,0.856-1.912,1.909c0,1.053,0.856,1.907,1.912,1.907h34.998
		c1.055,0,1.907-0.854,1.907-1.907C75.579,26.213,74.727,25.357,73.672,25.357z"/>
	<path fill="#FFFFFF" d="M65.857,16.569H39.853c-2.105,0-3.816,1.71-3.816,3.816c0,2.11,1.71,3.818,3.816,3.818h32.642
		c2.104,0,3.812-1.708,3.812-3.818c0-0.278-0.031-0.545-0.089-0.801c-0.151-1.126-0.807-2.174-1.864-2.781"/>
</g>
</svg>
